<?xml version="1.0" encoding="UTF-8" standalone="no"?> <svg width="64" height="64" viewBox="0 0 64 64" fill="none" xmlns="http://www.w3.org/2000/svg">
<path d="M61.3699 19.63C61.2898 19.4476 61.1743 19.283 61.0299 19.1458C60.8856 19.0086 60.7154 18.9015 60.5292 18.8307C60.343 18.76 60.1446 18.727 59.9456 18.7337C59.7466 18.7405 59.5508 18.7868 59.3699 18.87L58.4799 19.28L57.9899 19.51C55.47 20.8884 52.6313 21.5782 49.7599 21.51C46.8854 21.5772 44.0437 20.8874 41.5199 19.51C38.5986 17.9346 35.318 17.1454 31.9999 17.22C28.6727 17.1394 25.3818 17.9251 22.4499 19.5C19.9279 20.8823 17.0849 21.5724 14.2099 21.5C11.3423 21.5618 8.50851 20.8723 5.98988 19.5L5.49989 19.27C5.20989 19.12 4.90989 18.98 4.60989 18.85C4.37998 18.7476 4.12801 18.7047 3.87718 18.7253C3.62635 18.7459 3.38473 18.8292 3.17457 18.9677C2.9644 19.1061 2.79245 19.2952 2.67455 19.5176C2.55665 19.7399 2.49658 19.9883 2.49989 20.24V56C2.50253 57.4579 3.08284 58.8553 4.11372 59.8861C5.1446 60.917 6.54201 61.4973 7.99989 61.5H55.9999C57.4578 61.4973 58.8552 60.917 59.8861 59.8861C60.9169 58.8553 61.4972 57.4579 61.4999 56V20.24C61.5001 20.0298 61.4558 19.8219 61.3699 19.63Z" fill="#275996"/>
<path d="M56 6.5H8C6.54212 6.50264 5.14471 7.08295 4.11383 8.11383C3.08295 9.14471 2.50264 10.5421 2.5 12V20.24C2.50007 20.5299 2.58417 20.8137 2.74212 21.0568C2.90008 21.2999 3.12511 21.4921 3.39 21.61L4.7 22.22L5.5 22.6C8.20606 23.93 11.1961 24.5788 14.21 24.49C17.534 24.5711 20.8219 23.7853 23.75 22.21C26.277 20.8313 29.1222 20.1415 32 20.21C34.8745 20.1428 37.7161 20.8325 40.24 22.21C43.1681 23.7853 46.456 24.5711 49.78 24.49C52.7968 24.5752 55.7892 23.9266 58.5 22.6C58.78 22.48 59.04 22.35 59.31 22.22C59.74 22.01 60.16 21.81 60.61 21.61C60.8749 21.4921 61.0999 21.2999 61.2579 21.0568C61.4158 20.8137 61.4999 20.5299 61.5 20.24V12C61.4974 10.5421 60.917 9.14471 59.8862 8.11383C58.8553 7.08295 57.4579 6.50264 56 6.5V6.5Z" fill="#0099D6"/>
<path d="M19.86 28.5H12C11.1716 28.5 10.5 29.1716 10.5 30V37.86C10.5 38.6884 11.1716 39.36 12 39.36H19.86C20.6884 39.36 21.36 38.6884 21.36 37.86V30C21.36 29.1716 20.6884 28.5 19.86 28.5Z" fill="#97CCEF"/>
<path d="M35.9298 28.5H28.0698C27.2414 28.5 26.5698 29.1716 26.5698 30V37.86C26.5698 38.6884 27.2414 39.36 28.0698 39.36H35.9298C36.7583 39.36 37.4298 38.6884 37.4298 37.86V30C37.4298 29.1716 36.7583 28.5 35.9298 28.5Z" fill="#97CCEF"/>
<path d="M51.9999 28.5H44.1399C43.3115 28.5 42.6399 29.1716 42.6399 30V37.86C42.6399 38.6884 43.3115 39.36 44.1399 39.36H51.9999C52.8283 39.36 53.4999 38.6884 53.4999 37.86V30C53.4999 29.1716 52.8283 28.5 51.9999 28.5Z" fill="#97CCEF"/>
<path d="M19.86 43.6401H12C11.1716 43.6401 10.5 44.3117 10.5 45.1401V53.0001C10.5 53.8286 11.1716 54.5001 12 54.5001H19.86C20.6884 54.5001 21.36 53.8286 21.36 53.0001V45.1401C21.36 44.3117 20.6884 43.6401 19.86 43.6401Z" fill="#97CCEF"/>
<path d="M35.9298 43.6401H28.0698C27.2414 43.6401 26.5698 44.3117 26.5698 45.1401V53.0001C26.5698 53.8286 27.2414 54.5001 28.0698 54.5001H35.9298C36.7583 54.5001 37.4298 53.8286 37.4298 53.0001V45.1401C37.4298 44.3117 36.7583 43.6401 35.9298 43.6401Z" fill="#97CCEF"/>
<path d="M51.9999 43.6401H44.1399C43.3115 43.6401 42.6399 44.3117 42.6399 45.1401V53.0001C42.6399 53.8286 43.3115 54.5001 44.1399 54.5001H51.9999C52.8283 54.5001 53.4999 53.8286 53.4999 53.0001V45.1401C53.4999 44.3117 52.8283 43.6401 51.9999 43.6401Z" fill="#97CCEF"/>
<path d="M44.7898 2.45996C44.5894 2.45989 44.3911 2.49997 44.2064 2.57784C44.0218 2.65572 43.8546 2.7698 43.7148 2.91335C43.575 3.0569 43.4653 3.22701 43.3923 3.41364C43.3193 3.60027 43.2845 3.79964 43.2898 3.99996V12C43.2898 12.3978 43.4479 12.7793 43.7292 13.0606C44.0105 13.3419 44.392 13.5 44.7898 13.5C45.1877 13.5 45.5692 13.3419 45.8505 13.0606C46.1318 12.7793 46.2898 12.3978 46.2898 12V3.99996C46.2938 3.79999 46.258 3.60123 46.1846 3.41521C46.1111 3.22919 46.0014 3.05961 45.8618 2.91634C45.7223 2.77306 45.5556 2.65894 45.3716 2.5806C45.1876 2.50225 44.9898 2.46125 44.7898 2.45996Z" fill="#97CCEF"/>
<path d="M31.9998 2.45996C31.7994 2.45989 31.601 2.49997 31.4164 2.57784C31.2317 2.65572 31.0646 2.7698 30.9247 2.91335C30.7849 3.0569 30.6753 3.22701 30.6023 3.41364C30.5293 3.60027 30.4945 3.79964 30.4998 3.99996V12C30.4998 12.3978 30.6578 12.7793 30.9391 13.0606C31.2204 13.3419 31.602 13.5 31.9998 13.5C32.3976 13.5 32.7792 13.3419 33.0605 13.0606C33.3418 12.7793 33.4998 12.3978 33.4998 12V3.99996C33.5051 3.79964 33.4703 3.60027 33.3973 3.41364C33.3243 3.22701 33.2147 3.0569 33.0749 2.91335C32.935 2.7698 32.7679 2.65572 32.5832 2.57784C32.3986 2.49997 32.2002 2.45989 31.9998 2.45996Z" fill="#97CCEF"/>
<path d="M19.2098 2.45996C19.0098 2.46125 18.812 2.50225 18.628 2.5806C18.444 2.65894 18.2773 2.77306 18.1378 2.91634C17.9982 3.05961 17.8885 3.22919 17.8151 3.41521C17.7416 3.60123 17.7058 3.79999 17.7098 3.99996V12C17.7098 12.3978 17.8678 12.7793 18.1491 13.0606C18.4304 13.3419 18.8119 13.5 19.2098 13.5C19.6076 13.5 19.9891 13.3419 20.2704 13.0606C20.5517 12.7793 20.7098 12.3978 20.7098 12V3.99996C20.7151 3.79964 20.6803 3.60027 20.6073 3.41364C20.5343 3.22701 20.4247 3.0569 20.2848 2.91335C20.145 2.7698 19.9778 2.65572 19.7932 2.57784C19.6085 2.49997 19.4102 2.45989 19.2098 2.45996V2.45996Z" fill="#97CCEF"/>
</svg>
